<mxfile host="app.diagrams.net" modified="2021-01-12T15:47:11.398Z" agent="5.0 (Windows NT 6.1) AppleWebKit/537.36 (KHTML, like Gecko) Chrome/87.0.4280.88 Safari/537.36" etag="JxGbdeEpfuBXcxfXO-9R" version="14.1.9" type="github">
  <diagram id="Kcs2C-5W5MeKGsUl3B_W" name="Page-1">
    <mxGraphModel dx="868" dy="425" grid="1" gridSize="10" guides="1" tooltips="1" connect="1" arrows="1" fold="1" page="1" pageScale="1" pageWidth="850" pageHeight="1100" math="0" shadow="0">
      <root>
        <mxCell id="0" />
        <mxCell id="1" parent="0" />
        <mxCell id="pT5Yi9Nr6_NxJtkAQfqA-1" value="&lt;font style=&quot;font-size: 14px&quot;&gt;Search&lt;/font&gt;" style="rounded=0;whiteSpace=wrap;html=1;" vertex="1" parent="1">
          <mxGeometry x="180" y="230" width="120" height="40" as="geometry" />
        </mxCell>
        <mxCell id="pT5Yi9Nr6_NxJtkAQfqA-3" value="&lt;font style=&quot;font-size: 14px&quot;&gt;Transportation&lt;/font&gt;" style="ellipse;whiteSpace=wrap;html=1;aspect=fixed;" vertex="1" parent="1">
          <mxGeometry x="360" y="60" width="110" height="110" as="geometry" />
        </mxCell>
        <mxCell id="pT5Yi9Nr6_NxJtkAQfqA-4" value="&lt;font style=&quot;font-size: 14px&quot;&gt;View&lt;/font&gt;" style="rounded=0;whiteSpace=wrap;html=1;" vertex="1" parent="1">
          <mxGeometry x="365" y="230" width="120" height="40" as="geometry" />
        </mxCell>
        <mxCell id="pT5Yi9Nr6_NxJtkAQfqA-5" value="&lt;font style=&quot;font-size: 14px&quot;&gt;Book&lt;/font&gt;" style="rounded=0;whiteSpace=wrap;html=1;" vertex="1" parent="1">
          <mxGeometry x="580" y="230" width="120" height="35" as="geometry" />
        </mxCell>
        <mxCell id="pT5Yi9Nr6_NxJtkAQfqA-6" value="" style="endArrow=classic;html=1;exitX=-0.009;exitY=0.6;exitDx=0;exitDy=0;exitPerimeter=0;entryX=0.5;entryY=0;entryDx=0;entryDy=0;" edge="1" parent="1" source="pT5Yi9Nr6_NxJtkAQfqA-3" target="pT5Yi9Nr6_NxJtkAQfqA-1">
          <mxGeometry width="50" height="50" relative="1" as="geometry">
            <mxPoint x="400" y="280" as="sourcePoint" />
            <mxPoint x="450" y="230" as="targetPoint" />
          </mxGeometry>
        </mxCell>
        <mxCell id="pT5Yi9Nr6_NxJtkAQfqA-7" value="" style="endArrow=classic;html=1;exitX=0.5;exitY=1;exitDx=0;exitDy=0;entryX=0.442;entryY=0;entryDx=0;entryDy=0;entryPerimeter=0;" edge="1" parent="1" source="pT5Yi9Nr6_NxJtkAQfqA-3" target="pT5Yi9Nr6_NxJtkAQfqA-4">
          <mxGeometry width="50" height="50" relative="1" as="geometry">
            <mxPoint x="400" y="280" as="sourcePoint" />
            <mxPoint x="450" y="230" as="targetPoint" />
          </mxGeometry>
        </mxCell>
        <mxCell id="pT5Yi9Nr6_NxJtkAQfqA-8" value="" style="endArrow=classic;html=1;exitX=1;exitY=0.5;exitDx=0;exitDy=0;entryX=0.5;entryY=0;entryDx=0;entryDy=0;" edge="1" parent="1" source="pT5Yi9Nr6_NxJtkAQfqA-3" target="pT5Yi9Nr6_NxJtkAQfqA-5">
          <mxGeometry width="50" height="50" relative="1" as="geometry">
            <mxPoint x="400" y="280" as="sourcePoint" />
            <mxPoint x="450" y="230" as="targetPoint" />
          </mxGeometry>
        </mxCell>
        <mxCell id="pT5Yi9Nr6_NxJtkAQfqA-10" value="Transportation Master" style="shape=process;whiteSpace=wrap;html=1;backgroundOutline=1;" vertex="1" parent="1">
          <mxGeometry x="345" y="380" width="160" height="60" as="geometry" />
        </mxCell>
        <mxCell id="pT5Yi9Nr6_NxJtkAQfqA-11" value="" style="endArrow=classic;html=1;exitX=0.5;exitY=1;exitDx=0;exitDy=0;entryX=0.156;entryY=-0.017;entryDx=0;entryDy=0;entryPerimeter=0;" edge="1" parent="1" source="pT5Yi9Nr6_NxJtkAQfqA-1" target="pT5Yi9Nr6_NxJtkAQfqA-10">
          <mxGeometry width="50" height="50" relative="1" as="geometry">
            <mxPoint x="400" y="280" as="sourcePoint" />
            <mxPoint x="450" y="230" as="targetPoint" />
          </mxGeometry>
        </mxCell>
        <mxCell id="pT5Yi9Nr6_NxJtkAQfqA-12" value="" style="endArrow=classic;html=1;entryX=0.469;entryY=0;entryDx=0;entryDy=0;entryPerimeter=0;" edge="1" parent="1" target="pT5Yi9Nr6_NxJtkAQfqA-10">
          <mxGeometry width="50" height="50" relative="1" as="geometry">
            <mxPoint x="420" y="272" as="sourcePoint" />
            <mxPoint x="420" y="375" as="targetPoint" />
            <Array as="points">
              <mxPoint x="420" y="320" />
            </Array>
          </mxGeometry>
        </mxCell>
        <mxCell id="pT5Yi9Nr6_NxJtkAQfqA-13" value="" style="endArrow=classic;html=1;exitX=0.5;exitY=1;exitDx=0;exitDy=0;entryX=0.844;entryY=-0.05;entryDx=0;entryDy=0;entryPerimeter=0;" edge="1" parent="1" source="pT5Yi9Nr6_NxJtkAQfqA-5" target="pT5Yi9Nr6_NxJtkAQfqA-10">
          <mxGeometry width="50" height="50" relative="1" as="geometry">
            <mxPoint x="400" y="280" as="sourcePoint" />
            <mxPoint x="450" y="230" as="targetPoint" />
          </mxGeometry>
        </mxCell>
      </root>
    </mxGraphModel>
  </diagram>
</mxfile>
